HIERARCHY
ROOT Hips
{
	OFFSET 0.00000 0.00000 0.00000
	CHANNELS 6 Xposition Yposition Zposition Zrotation Yrotation Xrotation 
	JOINT LHipJoint
	{
		OFFSET 0 0 0
		CHANNELS 3 Zrotation Yrotation Xrotation
		JOINT LeftUpLeg
		{
			OFFSET 1.37590 -1.78394 0.89329
			CHANNELS 3 Zrotation Yrotation Xrotation
			JOINT LeftLeg
			{
				OFFSET 2.47928 -6.81178 0.00000
				CHANNELS 3 Zrotation Yrotation Xrotation
				JOINT LeftFoot
				{
					OFFSET 2.63345 -7.23535 0.00000
					CHANNELS 3 Zrotation Yrotation Xrotation
					JOINT LeftToeBase
					{
						OFFSET 0.23938 -0.65768 2.27012
						CHANNELS 3 Zrotation Yrotation Xrotation
						End Site
						{
							OFFSET 0.00000 -0.00000 1.18363
						}
					}
				}
			}
		}
	}
	JOINT RHipJoint
	{
		OFFSET 0 0 0
		CHANNELS 3 Zrotation Yrotation Xrotation
		JOINT RightUpLeg
		{
			OFFSET -1.33617 -1.78394 0.89329
			CHANNELS 3 Zrotation Yrotation Xrotation
			JOINT RightLeg
			{
				OFFSET -2.56922 -7.05888 0.00000
				CHANNELS 3 Zrotation Yrotation Xrotation
				JOINT RightFoot
				{
					OFFSET -2.56568 -7.04915 0.00000
					CHANNELS 3 Zrotation Yrotation Xrotation
					JOINT RightToeBase
					{
						OFFSET -0.27533 -0.75646 2.18105
						CHANNELS 3 Zrotation Yrotation Xrotation
						End Site
						{
							OFFSET -0.00000 -0.00000 1.15233
						}
					}
				}
			}
		}
	}
	JOINT LowerBack
	{
		OFFSET 0 0 0
		CHANNELS 3 Zrotation Yrotation Xrotation
		JOINT Spine
		{
			OFFSET 0.06190 2.15152 -0.00935
			CHANNELS 3 Zrotation Yrotation Xrotation
			JOINT Spine1
			{
				OFFSET 0.06334 2.15332 0.00872
				CHANNELS 3 Zrotation Yrotation Xrotation
				JOINT Neck
				{
					OFFSET 0 0 0
					CHANNELS 3 Zrotation Yrotation Xrotation
					JOINT Neck1
					{
						OFFSET -0.04202 1.66908 0.23524
						CHANNELS 3 Zrotation Yrotation Xrotation
						JOINT Head
						{
							OFFSET 0.07510 1.69357 -0.24440
							CHANNELS 3 Zrotation Yrotation Xrotation
							End Site
							{
								OFFSET 0.02556 1.71719 -0.11000
							}
						}
					}
				}
				JOINT LeftShoulder
				{
					OFFSET 0 0 0
					CHANNELS 3 Zrotation Yrotation Xrotation
					JOINT LeftArm
					{
						OFFSET 3.67168 1.26306 -0.41342
						CHANNELS 3 Zrotation Yrotation Xrotation
						JOINT LeftForeArm
						{
							OFFSET 4.68510 -0.00000 -0.00000
							CHANNELS 3 Zrotation Yrotation Xrotation
							JOINT LeftHand
							{
								OFFSET 3.39626 -0.00000 -0.00000
								CHANNELS 3 Zrotation Yrotation Xrotation
								JOINT LeftFingerBase
								{
									OFFSET 0 0 0
									CHANNELS 3 Zrotation Yrotation Xrotation
									JOINT LeftHandIndex1
									{
										OFFSET 0.48608 -0.00000 -0.00000
										CHANNELS 3 Zrotation Yrotation Xrotation
										End Site
										{
											OFFSET 0.39189 -0.00000 -0.00000
										}
									}
								}
								JOINT LThumb
								{
									OFFSET 0 0 0
									CHANNELS 3 Zrotation Yrotation Xrotation
									End Site
									{
										OFFSET 0.39787 -0.00000 0.39787
									}
								}
							}
						}
					}
				}
				JOINT RightShoulder
				{
					OFFSET 0 0 0
					CHANNELS 3 Zrotation Yrotation Xrotation
					JOINT RightArm
					{
						OFFSET -3.04136 1.42992 -0.76390
						CHANNELS 3 Zrotation Yrotation Xrotation
						JOINT RightForeArm
						{
							OFFSET -5.55576 -0.00000 -0.00000
							CHANNELS 3 Zrotation Yrotation Xrotation
							JOINT RightHand
							{
								OFFSET -3.32774 -0.00000 -0.00000
								CHANNELS 3 Zrotation Yrotation Xrotation
								JOINT RightFingerBase
								{
									OFFSET 0 0 0
									CHANNELS 3 Zrotation Yrotation Xrotation
									JOINT RightHandIndex1
									{
										OFFSET -0.50763 -0.00000 -0.00000
										CHANNELS 3 Zrotation Yrotation Xrotation
										End Site
										{
											OFFSET -0.40926 -0.00000 -0.00000
										}
									}
								}
								JOINT RThumb
								{
									OFFSET 0 0 0
									CHANNELS 3 Zrotation Yrotation Xrotation
									End Site
									{
										OFFSET -0.41551 -0.00000 0.41551
									}
								}
							}
						}
					}
				}
			}
		}
	}
}
MOTION
Frames: 6
Frame Time: .0083333
42.6063 17.5062 5.1947 0 0 0 0 0 0 -21 0 0 0 0 0 0 0 0 0 0 0 0 0 0 21 0 0 0 0 0 0 0 0 0 0 0 0 0 0 0 0 0 0 0 0 0 0 -16 0 0 21 0 0 11 0 0 0 -8 0 0 0 0 0 0 0 0 0 0 0 0 0 0 0 0 0 0 0 0 8 0 0 0 0 0 0 0 0 0 0 0 0 0 0 0 0 0
42.6063 17.5062 5.1947 -80.4131 -81.2096 90.4149 0.0000 0.0000 0.0000 -1.9094 -7.6866 -40.7719 8.1194 16.2064 52.9916 0.1027 2.0492 -7.1721 2.9521 -10.6170 -30.9990 0.0000 0.0000 0.0000 33.4645 4.6205 -5.2579 -0.8353 -5.8303 16.2927 -0.8639 -5.5570 -20.4241 -0.7826 -5.6478 15.7659 6.2209 0.7241 -0.2700 3.7245 0.8757 -0.4195 0.3469 0.3862 -0.2421 -6.9925 -1.3185 -20.6110 6.2998 -0.9654 14.6655 3.1358 -0.2132 7.9790 -0.0000 -0.0000 0.0000 -92.4066 -1.8668 12.8059 18.9578 -29.3662 -5.0101 -0.0000 -0.0000 20.2761 9.5524 20.0818 3.3070 -7.1250 0.0000 -0.0000 -18.4992 49.4002 -2.0709 -0.0000 -0.0000 0.0000 84.5463 7.7500 33.2051 -20.4088 31.1317 -5.7412 0.0000 0.0000 9.3337 -22.2400 -26.6213 10.3830 7.1250 -0.0000 -0.0000 8.8110 -58.1988 -2.8596
42.5401 17.5057 5.1907 -79.5255 -81.3101 89.7037 0.0000 0.0000 0.0000 -1.9248 -7.8771 -41.1336 7.7313 15.9180 51.5888 0.0865 2.6519 -7.1878 3.0302 -10.7439 -31.4208 0.0000 0.0000 0.0000 33.3450 4.4698 -5.1162 -0.8110 -5.7471 16.0523 -0.8843 -5.5298 -20.6002 -0.7729 -5.6133 15.6665 6.2328 0.7020 -0.2832 3.6082 0.8531 -0.4857 0.2202 0.3741 -0.3020 -6.9674 -1.3199 -20.7096 6.3173 -0.9707 14.6450 3.1373 -0.2108 7.9893 0.0000 0.0000 0.0000 -92.3571 -1.4894 12.6576 19.2964 -29.7853 -5.1773 -0.0000 -0.0000 19.6529 9.4090 20.3567 3.2991 -7.1250 0.0000 -0.0000 -18.7529 49.6402 -2.2150 0.0000 0.0000 0.0000 84.6293 7.7600 33.6453 -20.7863 31.5781 -5.9376 0.0000 0.0000 9.2609 -20.0656 -26.8845 9.3790 7.1250 -0.0000 -0.0000 11.2944 -57.9800 -3.6179
42.4716 17.4996 5.1875 -80.6305 -81.1901 91.0083 0.0000 0.0000 0.0000 -1.5943 -7.8054 -41.5115 7.3113 15.5886 50.0423 0.0693 3.1127 -7.0995 3.0960 -10.8488 -31.7718 0.0000 0.0000 0.0000 33.5084 4.5485 -4.9779 -0.7981 -5.7020 15.9223 -0.9133 -5.3866 -20.7777 -0.7613 -5.5720 15.5476 6.4630 0.7788 -0.2951 3.5669 0.9595 -0.5836 0.0500 0.4223 -0.3876 -6.9028 -1.2926 -20.6920 6.2413 -0.9366 14.5892 3.1041 -0.1985 7.9644 0.0000 0.0000 0.0000 -92.3450 -1.0605 12.5081 19.6310 -30.1952 -5.3445 -0.0000 -0.0000 18.9263 9.4266 20.6516 3.3511 -7.1250 0.0000 -0.0000 -18.8675 49.9231 -2.3643 0.0000 0.0000 0.0000 84.6760 7.6037 34.2447 -21.1593 32.0138 -6.1342 0.0000 0.0000 9.7773 -18.5972 -27.1000 8.7146 7.1250 -0.0000 -0.0000 12.9783 -57.8716 -4.1346
42.3992 17.4980 5.1837 -79.4217 -81.3642 89.9564 0.0000 0.0000 0.0000 -1.6917 -8.1303 -41.7079 6.8819 15.2316 48.4262 0.0539 3.5769 -7.0993 3.0141 -10.7178 -31.3341 0.0000 0.0000 0.0000 33.3199 4.4172 -4.7511 -0.7691 -5.6001 15.6283 -0.9303 -5.4447 -20.9729 -0.7626 -5.5767 15.5609 6.3520 0.7638 -0.3989 3.4450 0.9345 -0.5828 -0.0127 0.4136 -0.3295 -6.9523 -1.3251 -20.8660 6.3668 -0.9794 14.5942 3.1509 -0.2063 7.9997 -0.0000 -0.0000 0.0000 -92.3164 -0.7695 12.4448 19.9746 -30.6117 -5.5184 -0.0000 -0.0000 18.1908 9.4821 20.6361 3.3687 -7.1250 0.0000 -0.0000 -18.8086 49.9168 -2.3535 -0.0000 -0.0000 0.0000 84.7412 7.7042 34.6698 -21.6700 32.6021 -6.4071 0.0000 0.0000 9.2540 -17.2069 -27.5207 8.1435 7.1250 -0.0000 -0.0000 14.6921 -57.9813 -4.7343
42.3248 17.4936 5.1853 -80.7951 -81.4165 91.4427 0.0000 0.0000 0.0000 -1.6143 -8.1197 -41.7808 6.4199 14.8232 46.6444 0.0274 4.1940 -6.9664 2.9687 -10.6442 -31.0889 0.0000 0.0000 0.0000 33.2794 4.4459 -4.4908 -0.7548 -5.5488 15.4806 -0.9449 -5.3761 -21.0635 -0.7345 -5.4755 15.2699 6.7682 0.8656 -0.2161 3.1144 1.1027 -0.7294 -0.5866 0.4894 -0.5619 -6.8067 -1.3273 -20.8340 6.4922 -1.0534 14.5853 3.1599 -0.2210 7.9968 0.0000 -0.0000 0.0000 -91.9088 -0.2338 12.4588 20.3204 -31.0265 -5.6956 -0.0000 -0.0000 17.4614 9.3822 20.7119 3.3444 -7.1250 0.0000 -0.0000 -18.9361 49.9736 -2.3976 0.0000 -0.0000 0.0000 85.1083 7.3763 35.1828 -22.2689 33.2796 -6.7328 0.0000 0.0000 9.1953 -15.8026 -27.7687 7.5117 7.1250 -0.0000 -0.0000 16.3171 -57.9159 -5.2498
